<?xml version="1.0" standalone="no"?>
<!DOCTYPE svg PUBLIC "-//W3C//DTD SVG 1.1//EN" "http://www.w3.org/Graphics/SVG/1.1/DTD/svg11.dtd" >
<svg>
<metadata>
Created by FontForge 20110222 at Thu May 30 14:33:28 2013
 By www-data
Merriweather Sans is a low contrast semi condesed sans serif typeface designed to be readable at very small sizes. MerriweatherSans is traditional in feeling despite a the modern shapes it has adopted for screens.
</metadata>
<defs>
<font id="MerriweatherSans-Regular" horiz-adv-x="1569" >
  <font-face 
    font-family="Merriweather Sans"
    font-weight="400"
    font-stretch="normal"
    units-per-em="2048"
    panose-1="2 0 5 3 6 0 0 2 0 4"
    ascent="1638"
    descent="-410"
    x-height="1140"
    cap-height="1522"
    bbox="-82 -543 2725 1990"
    underline-thickness="137"
    underline-position="-212"
    stemh="166"
    stemv="220"
    unicode-range="U+0020-2122"
  />
    <missing-glyph />
    <glyph glyph-name="space" unicode=" " horiz-adv-x="655" 
 />
    <glyph glyph-name="numbersign" unicode="#" horiz-adv-x="1563" 
d="M377 0l32 355h-202v156h216l33 369h-215v153h229l31 340h191l-32 -340h307l30 340h190l-31 -340h222v-153h-236l-34 -369h226v-156h-241l-32 -355h-185l31 355h-310l-33 -355h-187zM611 511h310l32 369h-307z" />
    <glyph glyph-name="ampersand" unicode="&#x26;" horiz-adv-x="1532" 
d="M147 394c0 187 138 313 311 393c-83 111 -169 241 -169 401c0 222 162 358 414 358c234 0 374 -166 374 -344c0 -248 -127 -374 -339 -473c76 -106 240 -321 343 -434c51 53 82 124 82 228c0 93 -25 177 -33 205h192c10 -35 29 -111 29 -206c0 -148 -49 -262 -138 -342
c68 -44 132 -59 216 -68v-113c-27 -8 -66 -15 -117 -15c-100 0 -171 25 -250 78c-85 -44 -204 -78 -310 -78c-356 0 -605 137 -605 410zM645 858c153 66 245 161 245 341c0 82 -63 191 -191 191c-110 0 -206 -54 -206 -197c0 -146 48 -190 152 -335zM354 400
c0 -129 99 -257 385 -257c76 0 132 17 187 40c-117 131 -275 343 -370 475c-120 -63 -202 -150 -202 -258z" />
    <glyph glyph-name="quotesingle" unicode="'" horiz-adv-x="772" 
d="M298 966l-33 719h242l-32 -719h-177z" />
    <glyph glyph-name="parenleft" unicode="(" horiz-adv-x="846" 
d="M567 -330c-85 55 -447 378 -447 1053c0 574 355 956 447 1007l151 -74c-72 -56 -368 -358 -384 -933c-17 -593 287 -906 384 -978z" />
    <glyph glyph-name="parenright" unicode=")" horiz-adv-x="846" 
d="M279 1757c85 -55 447 -378 447 -1053c0 -574 -355 -956 -447 -1007l-151 74c72 56 368 358 384 933c17 593 -287 906 -384 978z" />
    <glyph glyph-name="asterisk" unicode="*" horiz-adv-x="1208" 
d="M514 647l12 263l35 170l-126 -121l-218 -146l-96 164l231 124l165 53c-6 3 -158 47 -166 49l-234 118l93 165l220 -145l129 -113c0 5 -37 159 -39 167l-19 265h192l-13 -262l-34 -168c4 4 118 113 125 118l220 146l95 -163l-232 -121l-164 -55l165 -49l236 -115l-97 -170
l-217 144l-131 113l39 -168l21 -262z" />
    <glyph glyph-name="plus" unicode="+" horiz-adv-x="1393" 
d="M607 285v236l7 171l-165 -7h-220v177h220l165 -11l-7 172v228h178v-228l-8 -172l141 11h246v-177h-246l-141 7l8 -171v-236h-178z" />
    <glyph glyph-name="comma" unicode="," horiz-adv-x="602" 
d="M160 77v63l139 131c140 -52 191 -209 191 -325c0 -219 -123 -393 -265 -446l-74 92v26c74 37 131 144 131 258c0 84 -59 194 -122 201z" />
    <glyph glyph-name="hyphen" unicode="-" horiz-adv-x="1350" 
d="M250 683v177h850v-177h-850z" />
    <glyph glyph-name="period" unicode="." horiz-adv-x="602" 
d="M147 130c-2 95 78 174 161 174c95 0 145 -70 147 -151c3 -99 -76 -175 -162 -175c-76 0 -143 64 -146 152z" />
    <glyph glyph-name="slash" unicode="/" horiz-adv-x="854" 
d="M42 -363l570 1962h198l-570 -1962h-198z" />
    <glyph glyph-name="zero" unicode="0" horiz-adv-x="1386" 
d="M148 643c5 388 245 631 563 631c402 0 530 -284 527 -636c-3 -385 -223 -654 -552 -654c-394 0 -542 317 -538 659zM694 136c213 -5 317 184 317 493c0 272 -94 490 -313 491c-213 1 -323 -180 -323 -468c0 -260 99 -511 319 -516z" />
    <glyph glyph-name="one" unicode="1" horiz-adv-x="918" 
d="M378 0v999c-76 -21 -146 -39 -223 -53l-25 131c130 39 321 150 377 201l100 -25v-1253h-229z" />
    <glyph glyph-name="two" unicode="2" horiz-adv-x="1269" 
d="M180 0l-33 113c340 198 685 498 685 779c0 135 -81 225 -237 225c-133 0 -264 -68 -336 -142l-93 124c77 85 231 193 453 193c332 0 437 -185 437 -388c0 -258 -218 -531 -546 -733l615 6v-177h-945z" />
    <glyph glyph-name="three" unicode="3" horiz-adv-x="1147" 
d="M152 -167c55 -11 113 -17 164 -17c297 0 498 158 498 357c0 172 -104 292 -357 273l-91 -22l-46 151c66 13 127 31 182 55c148 58 237 158 238 274c2 152 -103 211 -236 211c-143 0 -242 -57 -314 -108l-86 125c78 64 245 157 419 157c232 0 434 -120 434 -358
c0 -172 -121 -304 -275 -377c228 -27 356 -192 356 -365c0 -281 -255 -530 -679 -528c-65 0 -133 7 -206 20z" />
    <glyph glyph-name="four" unicode="4" horiz-adv-x="1339" 
d="M116 104l584 1195h79l136 -84l-466 -894l-89 -151h460l18 433h202v-433h231v-170h-231v-376h-220v376h-650z" />
    <glyph glyph-name="five" unicode="5" horiz-adv-x="1227" 
d="M205 -188c21 -1 42 -2 63 -2c341 -1 588 173 588 413c0 201 -98 304 -326 304c-79 0 -172 -17 -270 -48l-50 30l56 743h771l-22 -190h-578l-39 -400c81 18 159 29 229 29c296 0 453 -177 453 -454c0 -285 -261 -580 -752 -586c-33 0 -89 2 -124 13z" />
    <glyph glyph-name="six" unicode="6" horiz-adv-x="1373" 
d="M160 571c0 541 450 929 829 1002l60 -142c-378 -101 -640 -439 -650 -762c-8 -279 53 -532 304 -532c189 0 282 178 282 360c0 248 -110 320 -225 320c-81 0 -146 -27 -176 -46l-60 130c37 35 141 87 281 87c257 0 403 -206 403 -445c0 -286 -173 -559 -534 -559
c-324 0 -514 270 -514 587z" />
    <glyph glyph-name="seven" unicode="7" horiz-adv-x="1241" 
d="M340 -267c208 442 396 911 564 1358l-754 2l1 178h949l46 -58l-571 -1548z" />
    <glyph glyph-name="eight" unicode="8" horiz-adv-x="1307" 
d="M152 385c0 148 86 309 309 419c-138 87 -250 200 -250 390c0 246 211 371 464 371c262 0 441 -140 441 -349c0 -144 -83 -318 -280 -414c175 -100 339 -212 341 -402c3 -279 -233 -416 -502 -416c-253 0 -523 110 -523 401zM691 884c151 52 220 183 223 303
c6 135 -89 225 -246 225c-142 0 -254 -76 -254 -205c0 -144 127 -236 277 -323zM363 402c0 -165 101 -264 320 -264c139 0 276 86 276 235c0 169 -172 253 -351 348c-143 -59 -245 -178 -245 -319z" />
    <glyph glyph-name="nine" unicode="9" horiz-adv-x="1399" 
d="M287 -254c414 103 684 532 693 837c9 301 -62 532 -304 532c-169 0 -279 -161 -279 -316c0 -247 104 -372 246 -372c97 0 133 21 172 39l52 -124c-33 -37 -125 -86 -282 -86c-261 0 -409 225 -409 469c0 325 196 547 533 547c336 0 507 -271 507 -588
c0 -576 -473 -995 -855 -1074z" />
    <glyph glyph-name="colon" unicode=":" horiz-adv-x="602" 
d="M147 130c-2 95 78 174 161 174c95 0 145 -70 147 -151c3 -99 -76 -175 -162 -175c-76 0 -143 64 -146 152zM147 926c-2 95 78 174 161 174c95 0 145 -70 147 -151c3 -99 -76 -175 -162 -175c-76 0 -143 64 -146 152z" />
    <glyph glyph-name="semicolon" unicode=";" horiz-adv-x="602" 
d="M160 77v63l139 131c140 -52 191 -209 191 -325c0 -219 -123 -393 -265 -446l-74 92v26c74 37 131 144 131 258c0 84 -59 194 -122 201zM147 926c-2 95 78 174 161 174c95 0 145 -70 147 -151c3 -99 -76 -175 -162 -175c-76 0 -143 64 -146 152z" />
    <glyph glyph-name="less" unicode="&#x3c;" horiz-adv-x="1368" 
d="M168 696v154l966 446v-205l-731 -318l731 -313v-208z" />
    <glyph glyph-name="equal" unicode="=" horiz-adv-x="1399" 
d="M242 949v167h915v-167h-915zM242 433v166h915v-166h-915z" />
    <glyph glyph-name="greater" unicode="&#x3e;" horiz-adv-x="1368" 
d="M1200 850v-154l-966 -444v208l731 313l-731 318v205z" />
    <glyph glyph-name="question" unicode="?" horiz-adv-x="1047" 
d="M364 494c-44 54 -85 159 -89 276c-8 218 395 295 428 473c65 263 -102 411 -401 411c-99 0 -157 -11 -181 -17v160c22 16 117 42 216 42c482 0 644 -292 585 -585c-52 -296 -420 -329 -435 -505c-9 -91 14 -155 44 -255h-167zM333 126c-2 92 78 169 158 169
c93 0 141 -68 144 -146c3 -97 -75 -171 -159 -171c-73 0 -140 62 -143 148z" />
    <glyph glyph-name="at" unicode="@" horiz-adv-x="2218" 
d="M213 424c0 676 452 1119 1039 1119c446 0 756 -254 756 -711c0 -529 -285 -837 -570 -837c-96 0 -141 66 -150 187c-3 31 -3 74 4 131c-91 -173 -220 -318 -373 -318c-135 0 -288 140 -282 440c7 277 174 628 558 628c86 0 176 -16 232 -55l172 31
c-39 -146 -97 -412 -126 -602c-28 -181 -29 -283 17 -283c148 0 341 285 341 642c0 485 -275 601 -618 601c-452 0 -824 -389 -824 -952c0 -573 340 -775 704 -775c199 0 340 49 410 84l39 -129c-85 -53 -276 -103 -469 -103c-482 0 -860 291 -860 902zM825 475
c-5 -175 33 -303 140 -303c138 0 356 438 387 667c-33 55 -117 75 -177 75c-221 0 -344 -234 -350 -439z" />
    <glyph glyph-name="A" unicode="A" horiz-adv-x="1407" 
d="M21 0l582 1538h215l568 -1538h-241l-130 385h-622l-136 -385h-236zM452 551h507l-204 609l-43 142l-44 -142z" />
    <glyph glyph-name="B" unicode="B" horiz-adv-x="1339" 
d="M194 0v1523l104 -1c100 0 200 15 350 15c342 0 496 -143 496 -360c0 -139 -65 -310 -231 -354c186 -8 334 -180 334 -367c0 -275 -141 -470 -615 -470c-115 0 -256 9 -327 14h-111zM416 867c80 -12 196 -5 277 -5c129 0 235 94 235 283c0 160 -115 235 -321 235
c-40 0 -163 -3 -191 -13v-500zM416 171c35 -22 167 -23 242 -23c226 0 363 69 363 282c0 190 -111 273 -353 273c-81 0 -190 3 -252 -5v-527z" />
    <glyph glyph-name="C" unicode="C" horiz-adv-x="1313" 
d="M95 753c0 504 330 785 704 785c231 0 345 -44 399 -57l-32 -198c-29 15 -123 74 -352 74c-309 0 -498 -229 -498 -589c0 -356 187 -608 497 -608c156 0 321 46 374 93l1 -189c-88 -35 -195 -80 -384 -80c-430 0 -709 308 -709 769z" />
    <glyph glyph-name="D" unicode="D" horiz-adv-x="1472" 
d="M194 0v1522h112c98 0 233 16 360 16c489 0 722 -271 722 -734c0 -519 -286 -829 -746 -820c-101 2 -254 16 -363 16h-85zM418 168c67 -15 173 -20 259 -19c279 6 479 185 479 622c0 450 -184 606 -542 606c-82 0 -152 -7 -196 -16v-1193z" />
    <glyph glyph-name="E" unicode="E" horiz-adv-x="1217" 
d="M194 0v1522h876v-172h-653v-480h479v-172h-479v-523h726v-175h-949z" />
    <glyph glyph-name="F" unicode="F" horiz-adv-x="1083" 
d="M194 0v1522h874v-172h-650v-499h487v-172h-487v-679h-224z" />
    <glyph glyph-name="G" unicode="G" horiz-adv-x="1433" 
d="M99 753c0 522 312 785 705 785c228 0 293 -34 426 -60l-10 -200c-97 50 -206 86 -430 86c-265 0 -460 -216 -460 -584c0 -352 150 -626 471 -626c109 0 243 18 301 57v377l-277 13v160h492v-667c-88 -5 -204 -110 -513 -110c-450 0 -705 329 -705 769z" />
    <glyph glyph-name="H" unicode="H" horiz-adv-x="1552" 
d="M194 0v1522h223v-667h718v667h223v-1522h-223v683h-718v-683h-223z" />
    <glyph glyph-name="I" unicode="I" horiz-adv-x="640" 
d="M207 0v1522h226v-1522h-226z" />
    <glyph glyph-name="J" unicode="J" horiz-adv-x="713" 
d="M-42 -215c106 38 235 124 278 281c33 120 32 329 32 542v914h226v-909c0 -199 8 -381 -19 -527c-46 -261 -280 -392 -449 -418z" />
    <glyph glyph-name="L" unicode="L" horiz-adv-x="1080" 
d="M194 0v1522h228v-1347h604v-175h-832z" />
    <glyph glyph-name="M" unicode="M" horiz-adv-x="1923" 
d="M134 -1l154 1523h315l282 -869l79 -323l75 323l270 869h299l182 -1522h-224l-93 946l-29 410l-102 -410l-318 -961h-120l-332 961l-112 409l-27 -409l-83 -946z" />
    <glyph glyph-name="N" unicode="N" horiz-adv-x="1556" 
d="M193 0v1522h204l651 -1005l123 -226l-13 254v977h205v-1522h-207l-630 967l-140 249l12 -264v-952h-205z" />
    <glyph glyph-name="O" unicode="O" 
d="M778 -16c-421 -9 -687 327 -678 788c10 508 322 766 708 766c404 0 670 -305 661 -777c-10 -507 -302 -769 -691 -777zM785 155c277 0 458 215 458 617c0 319 -150 596 -442 596c-257 0 -476 -193 -476 -610c0 -316 156 -603 460 -603z" />
    <glyph glyph-name="P" unicode="P" horiz-adv-x="1270" 
d="M194 0v1522h105c116 0 231 16 366 16c328 0 531 -147 531 -493c0 -331 -202 -523 -582 -523c-97 0 -158 4 -197 5v-527h-223zM417 696c67 -9 126 -10 184 -10c195 0 373 58 373 357c0 244 -132 343 -376 335c-61 -2 -125 -5 -181 -19v-663z" />
    <glyph glyph-name="Q" unicode="Q" 
d="M766 -16c-414 -2 -675 331 -666 788c10 508 322 766 708 766c404 0 670 -305 661 -777c-8 -415 -206 -666 -490 -748c86 -89 218 -126 348 -126c52 0 138 3 184 19v-160c-31 -21 -107 -40 -183 -40c-211 0 -394 53 -562 278zM785 155c277 0 458 215 458 617
c0 319 -150 596 -442 596c-257 0 -476 -193 -476 -610c0 -316 156 -603 460 -603z" />
    <glyph glyph-name="R" unicode="R" horiz-adv-x="1367" 
d="M194 0v1522h97c99 0 241 16 388 16c310 0 518 -124 518 -428c0 -224 -104 -362 -275 -422c141 -98 222 -392 323 -576c20 -38 40 -75 61 -112h-253c-18 26 -25 48 -55 112c-82 178 -156 487 -316 538c-59 -2 -139 -2 -265 -2v-648h-223zM417 806c44 -5 181 -6 235 -6
c197 0 317 88 317 299c0 189 -89 275 -323 275c-83 0 -165 -5 -229 -18v-550z" />
    <glyph glyph-name="S" unicode="S" horiz-adv-x="1132" 
d="M128 71l53 183c75 -46 220 -93 359 -93c191 0 303 61 303 211s-123 213 -337 317c-189 92 -381 238 -381 458c0 292 259 391 506 391c184 0 301 -45 354 -79l-45 -176c-70 42 -148 80 -312 80c-144 0 -290 -55 -290 -186c0 -149 84 -202 303 -315
c196 -101 421 -226 421 -464c0 -282 -209 -414 -507 -414c-200 0 -373 52 -427 87z" />
    <glyph glyph-name="T" unicode="T" horiz-adv-x="1303" 
d="M538 0v1350h-475v172h1177v-172h-477v-1350h-225z" />
    <glyph glyph-name="U" unicode="U" horiz-adv-x="1463" 
d="M159 633v889h223l-1 -836c0 -420 133 -528 367 -528c206 0 335 109 335 528v836h222v-892c0 -415 -183 -646 -564 -646c-418 0 -583 237 -582 649z" />
    <glyph glyph-name="V" unicode="V" horiz-adv-x="1355" 
d="M591 -13l-569 1535h237l360 -1024l67 -235l69 235l344 1024h234l-555 -1535h-187z" />
    <glyph glyph-name="W" unicode="W" horiz-adv-x="1918" 
d="M441 -16l-419 1538h229l242 -988l50 -276l51 276l287 988h161l291 -988l66 -278l47 277l226 989h224l-393 -1538h-218l-290 998l-35 182l-34 -183l-294 -997h-191z" />
    <glyph glyph-name="X" unicode="X" horiz-adv-x="1314" 
d="M43 0l480 786l-478 736l251 1l248 -403l123 -203l119 203l237 402h239l-477 -769l487 -753h-254l-269 448l-104 171l-101 -171l-262 -448h-239z" />
    <glyph glyph-name="Y" unicode="Y" horiz-adv-x="1264" 
d="M523 0v593l-501 929h238l338 -660l43 -105l36 105l331 660h234l-493 -929v-593h-226z" />
    <glyph glyph-name="Z" unicode="Z" horiz-adv-x="1294" 
d="M89 84l777 1189l58 71h-750v178h996l46 -81l-760 -1181l-74 -85h775v-175h-1023z" />
    <glyph glyph-name="bracketleft" unicode="[" horiz-adv-x="837" 
d="M185 60v1426c0 197 36 251 190 251c123 0 192 -13 290 -24v-120h-268v-1642l268 -2v-116c-98 -14 -167 -24 -290 -24c-154 0 -190 54 -190 251z" />
    <glyph glyph-name="backslash" unicode="\" horiz-adv-x="854" 
d="M240 1599l570 -1962h-198l-570 1962h198z" />
    <glyph glyph-name="bracketright" unicode="]" horiz-adv-x="837" 
d="M652 1486v-1426c0 -197 -36 -251 -190 -251c-123 0 -192 10 -290 24v116l268 2v1642h-268v120c98 11 167 24 290 24c154 0 190 -54 190 -251z" />
    <glyph glyph-name="asciicircum" unicode="^" horiz-adv-x="1363" 
d="M185 490l394 1041h205l394 -1041h-211l-286 798l-285 -798h-211z" />
    <glyph glyph-name="underscore" unicode="_" horiz-adv-x="1692" 
d="M-40 -279h1772v-137h-1772v137z" />
    <glyph glyph-name="grave" unicode="`" horiz-adv-x="595" 
d="M434 1294c-81 37 -318 253 -384 354l157 135c95 -123 226 -271 338 -399z" />
    <glyph glyph-name="a" unicode="a" horiz-adv-x="1131" 
d="M94 305c0 148 86 253 222 309c132 53 305 74 434 74v115c0 163 -78 188 -243 188c-100 0 -256 -46 -308 -83l-54 144c42 26 242 105 419 105c242 0 406 -64 406 -363v-810h-90c-76 0 -117 5 -117 104v8c-61 -56 -185 -112 -320 -112c-202 0 -349 121 -349 321zM311 324
c0 -116 64 -176 197 -176c102 0 219 54 242 81v319c-83 0 -230 -16 -312 -55c-74 -35 -127 -81 -127 -169z" />
    <glyph glyph-name="b" unicode="b" horiz-adv-x="1238" 
d="M166 64v1597h220v-472l-8 -159c53 54 143 126 313 126c240 0 450 -174 450 -544c0 -369 -229 -630 -575 -630c-159 0 -357 54 -400 82zM386 184c37 -26 108 -40 205 -40c183 0 322 152 326 438c3 274 -101 401 -287 401c-109 0 -196 -55 -244 -93v-706z" />
    <glyph glyph-name="c" unicode="c" horiz-adv-x="1002" 
d="M97 558c0 336 184 598 551 598c143 0 244 -35 280 -59l-35 -174c-60 42 -140 63 -256 63c-157 0 -317 -111 -327 -389c-10 -290 136 -447 321 -447c114 0 221 36 272 67l45 -125c-70 -65 -206 -108 -350 -108c-321 0 -501 248 -501 574z" />
    <glyph glyph-name="d" unicode="d" horiz-adv-x="1237" 
d="M97 528c0 369 226 628 571 628c74 0 138 -13 186 -29l-3 62v475h220v-1680h-95c-68 0 -113 8 -113 88v40c-53 -54 -144 -128 -317 -128c-239 0 -449 174 -449 544zM607 157c109 0 196 54 244 92v697c-41 36 -108 50 -205 50c-182 0 -322 -152 -325 -438
c-3 -274 101 -401 286 -401z" />
    <glyph glyph-name="e" unicode="e" horiz-adv-x="1123" 
d="M97 572c0 332 175 578 509 584c227 4 411 -145 420 -430c0 -86 0 -153 -11 -204h-703c0 -7 1 -13 1 -20c13 -268 162 -352 348 -352c76 0 228 29 284 62l42 -126c-75 -61 -248 -102 -385 -102c-324 0 -505 218 -505 588zM317 668h503c10 163 -26 332 -226 332
c-137 0 -251 -86 -277 -332z" />
    <glyph glyph-name="f" unicode="f" horiz-adv-x="811" 
d="M248 0v974h-173v122l173 44v99c0 341 230 443 413 443c62 0 121 -14 142 -22v-174c-41 14 -83 20 -172 20c-95 0 -163 -72 -163 -217v-149h282v-166h-282v-974h-220z" />
    <glyph glyph-name="g" unicode="g" horiz-adv-x="1217" 
d="M110 -181c0 115 86 193 159 233c-74 43 -89 111 -88 171c2 75 53 160 140 219c-120 64 -197 177 -197 320c0 266 196 389 450 394c108 2 209 -21 289 -69c47 31 130 61 213 61h111v-175h-209c32 -54 51 -120 51 -198c0 -253 -200 -391 -459 -391c-44 0 -85 4 -124 13
c-37 -26 -64 -69 -64 -114c0 -86 35 -110 130 -110h207c347 0 420 -160 420 -318c0 -229 -251 -373 -554 -372c-290 1 -475 107 -475 336zM575 531c146 0 235 55 235 236c0 156 -73 240 -225 240c-128 0 -242 -44 -242 -235c0 -128 66 -241 232 -241zM324 -155
c0 -139 75 -211 269 -211c178 0 336 59 336 173c0 123 -52 193 -282 193h-102c-59 0 -107 1 -148 7c-37 -33 -73 -77 -73 -162z" />
    <glyph glyph-name="h" unicode="h" horiz-adv-x="1289" 
d="M176 0v1664h220v-475l-10 -162c88 64 241 126 382 130c248 6 351 -129 351 -462v-695h-220v711c0 186 -48 270 -222 262c-74 -3 -190 -38 -281 -104v-869h-220z" />
    <glyph glyph-name="i" unicode="i" horiz-adv-x="606" 
d="M193 0v1138h220v-1138h-220zM296 1347c-75 0 -141 52 -141 135c0 87 83 156 162 156c95 0 141 -60 141 -135c0 -92 -79 -156 -162 -156z" />
    <glyph glyph-name="j" unicode="j" horiz-adv-x="574" 
d="M193 -48v1186h220v-1101c0 -393 -126 -544 -353 -544c-31 0 -124 4 -139 13v163c21 -10 83 -22 117 -22c120 0 155 105 155 305zM293 1347c-75 0 -141 52 -141 135c0 87 83 156 162 156c95 0 141 -60 141 -135c0 -92 -79 -156 -162 -156z" />
    <glyph glyph-name="k" unicode="k" horiz-adv-x="1163" 
d="M168 0v1661h220v-910l-4 -112l455 501h259l-430 -449l483 -691h-250l-377 541l-141 -147l5 -171v-223h-220z" />
    <glyph glyph-name="l" unicode="l" horiz-adv-x="613" 
d="M197 0v1664h220v-1664h-220z" />
    <glyph glyph-name="m" unicode="m" horiz-adv-x="1972" 
d="M176 0v1138h196l1 -120c85 58 243 135 392 139c148 3 241 -37 291 -143c88 68 252 140 403 143c244 5 343 -109 343 -443v-714h-220v711c0 186 -32 270 -208 262c-79 -3 -193 -41 -279 -102c6 -46 9 -98 9 -157v-714h-220v711c0 186 -34 270 -208 262
c-73 -3 -189 -38 -280 -104v-869h-220z" />
    <glyph glyph-name="n" unicode="n" horiz-adv-x="1279" 
d="M176 0v1138h196l1 -120c85 58 248 135 397 139c246 6 339 -113 339 -447v-710h-220v711c0 190 -35 274 -213 264c-75 -3 -189 -40 -280 -106v-869h-220z" />
    <glyph glyph-name="o" unicode="o" horiz-adv-x="1213" 
d="M596 -16c-365 0 -504 285 -500 610c5 366 227 562 520 562c366 0 505 -285 501 -610c-6 -366 -227 -562 -521 -562zM602 140c193 -4 292 152 292 416c0 244 -87 439 -283 442c-192 4 -292 -144 -292 -407c0 -244 89 -447 283 -451z" />
    <glyph glyph-name="p" unicode="p" horiz-adv-x="1238" 
d="M383 13l3 -152v-367h-220v1646h199v-123c51 54 141 139 326 139c240 0 450 -174 450 -544c0 -369 -226 -628 -571 -628c-76 0 -140 13 -187 29zM386 195c42 -37 108 -51 205 -51c183 0 322 152 326 438c3 274 -101 401 -287 401c-109 0 -196 -55 -244 -93v-695z" />
    <glyph glyph-name="q" unicode="q" horiz-adv-x="1237" 
d="M97 528c0 369 226 628 571 628c103 0 195 -25 247 -47l158 31v-1646h-220v367l6 246c-54 -53 -145 -123 -313 -123c-239 0 -449 174 -449 544zM607 157c110 0 199 55 246 93v695c-41 37 -109 51 -207 51c-182 0 -322 -152 -325 -438c-3 -274 101 -401 286 -401z" />
    <glyph glyph-name="r" unicode="r" horiz-adv-x="819" 
d="M168 0v1138h185l14 -126c42 57 180 145 309 145c54 0 91 -5 111 -14v-206c-20 11 -56 27 -150 27c-112 0 -199 -49 -249 -95v-869h-220z" />
    <glyph glyph-name="s" unicode="s" horiz-adv-x="977" 
d="M112 65l33 164c31 -22 175 -80 320 -82c134 -1 207 51 207 140c0 93 -105 147 -235 202c-182 77 -320 180 -318 371c3 198 186 296 412 296c138 0 255 -40 289 -59l-36 -166c-35 30 -140 63 -246 63c-140 0 -214 -48 -216 -122c-3 -106 82 -156 221 -212
c153 -62 334 -162 334 -357c0 -207 -155 -319 -402 -319c-156 0 -309 42 -363 81z" />
    <glyph glyph-name="t" unicode="t" horiz-adv-x="850" 
d="M228 273v701h-148v119c100 29 145 33 169 98c18 46 38 118 66 209h132v-260h322v-166h-322v-577c0 -219 17 -237 126 -237c59 0 157 23 195 43l38 -126c-62 -46 -200 -93 -315 -93c-147 0 -263 53 -263 289z" />
    <glyph glyph-name="u" unicode="u" horiz-adv-x="1249" 
d="M170 474v666h220v-665c0 -282 59 -310 209 -310c86 0 204 47 254 80v895h220v-1156h-85c-69 0 -110 8 -110 88v28c-94 -58 -245 -116 -369 -116c-290 0 -339 197 -339 490z" />
    <glyph glyph-name="v" unicode="v" horiz-adv-x="1113" 
d="M471 -16l-452 1156h237l226 -649l84 -272l77 272l217 649h234l-438 -1156h-185z" />
    <glyph glyph-name="w" unicode="w" horiz-adv-x="1632" 
d="M369 -16l-348 1156h220l184 -684l50 -214l46 213l190 685h219l189 -684l49 -218l50 211l178 691h215l-348 -1156h-203l-204 745l-37 182l-40 -182l-201 -745h-209z" />
    <glyph glyph-name="x" unicode="x" horiz-adv-x="1134" 
d="M50 0l401 578l-404 562h250l250 -378l25 -42l21 44l251 376h247l-405 -558l414 -582h-255l-250 379l-34 55l-28 -58l-232 -376h-251z" />
    <glyph glyph-name="y" unicode="y" horiz-adv-x="1116" 
d="M131 -314c22 -7 73 -11 96 -11c82 0 231 53 295 325h-65l-413 1140h235l252 -768l58 -186l51 186l216 768h237l-384 -1176c-90 -275 -213 -415 -358 -456c-30 -8 -77 -15 -108 -15c-30 0 -100 6 -112 14v179z" />
    <glyph glyph-name="z" unicode="z" horiz-adv-x="1061" 
d="M82 82l553 807l57 83h-550v168h812l35 -95l-550 -801l-59 -84h589v-160h-845z" />
    <glyph glyph-name="braceleft" unicode="{" horiz-adv-x="972" 
d="M327 60v511c0 58 -151 125 -252 135v142c101 10 252 67 252 127v511c0 197 44 256 198 256c109 0 191 -13 277 -24v-122h-266v-620c0 -38 -16 -68 -44 -94c-44 -43 -121 -75 -197 -106c77 -30 156 -69 201 -116c25 -27 40 -56 40 -88v-621h266v-112
c-86 -24 -168 -35 -277 -35c-154 0 -198 59 -198 256z" />
    <glyph glyph-name="bar" unicode="|" horiz-adv-x="855" 
d="M326 -188v1968h203v-1968h-203z" />
    <glyph glyph-name="braceright" unicode="}" horiz-adv-x="972" 
d="M645 571v-511c0 -197 -44 -256 -198 -256c-109 0 -191 11 -277 35v112h266v621c0 32 15 61 40 88c45 47 124 86 201 116c-76 31 -153 63 -197 106c-28 26 -44 56 -44 94v620h-266v122c86 11 168 24 277 24c154 0 198 -59 198 -256v-511c0 -60 151 -117 252 -127v-142
c-101 -10 -252 -77 -252 -135z" />
    <glyph glyph-name="asciitilde" unicode="~" horiz-adv-x="1438" 
d="M331 669l-115 89c32 84 151 212 316 212c193 0 245 -168 384 -168c94 0 154 49 202 114l103 -99c-39 -104 -147 -203 -317 -203c-193 0 -237 169 -380 169c-94 0 -146 -50 -193 -114z" />
    <glyph glyph-name="exclamdown" unicode="&#xa1;" horiz-adv-x="602" 
d="M392 838l28 -1274h-248l24 1274h196zM455 1214c3 -95 -78 -174 -160 -174c-96 0 -145 70 -148 151c-2 99 76 175 162 175c77 0 144 -64 146 -152z" />
    <glyph glyph-name="exclam" unicode="!" horiz-adv-x="602" 
d="M210 506l-28 1274h248l-24 -1274h-196zM147 130c-3 95 78 174 160 174c96 0 145 -70 148 -151c2 -99 -76 -175 -162 -175c-77 0 -144 64 -146 152z" />
    <glyph glyph-name="sterling" unicode="&#xa3;" horiz-adv-x="1532" 
d="M146 80c0 93 83 169 262 178c25 56 28 136 28 210v288h-181v152h181v137c0 297 175 493 473 493c166 0 268 -48 328 -99l-104 -158c-56 48 -124 91 -247 91c-112 0 -233 -56 -231 -357v-107h353v-152h-352l1 -35c2 -269 -3 -428 -77 -508c125 -21 180 -76 357 -76
c196 0 248 92 248 196c0 76 -44 140 -76 150l156 80c48 -27 128 -122 128 -246c0 -232 -151 -337 -430 -337c-278 0 -416 122 -509 112c-40 -44 -121 -94 -200 -94c-45 0 -108 32 -108 82z" />
    <glyph glyph-name="brokenbar" unicode="&#xa6;" horiz-adv-x="855" 
d="M326 950v830h203v-830h-203zM326 -186v827h203v-827h-203z" />
    <glyph glyph-name="dieresis" unicode="&#xa8;" horiz-adv-x="863" 
d="M649 1363c-72 0 -131 50 -131 130c0 83 78 149 155 149c90 0 130 -58 130 -130c0 -88 -74 -149 -154 -149zM191 1363c-72 0 -131 50 -131 130c0 83 79 149 155 149c91 0 130 -58 130 -130c0 -88 -74 -149 -154 -149z" />
    <glyph glyph-name="copyright" unicode="&#xa9;" horiz-adv-x="2129" 
d="M194 963c0 486 384 877 870 877s871 -391 871 -877c0 -487 -385 -881 -871 -881s-870 394 -870 881zM336 963c0 -414 309 -752 728 -752s728 338 728 752c0 413 -309 751 -728 751s-728 -338 -728 -751zM621 956c0 280 173 494 496 494c128 0 203 -36 238 -56l-32 -164
c-55 36 -125 63 -225 63c-184 0 -283 -142 -283 -322c0 -217 113 -335 273 -335c105 0 197 33 247 61l45 -124c-65 -54 -186 -94 -319 -94c-277 0 -440 229 -440 477z" />
    <glyph glyph-name="guillemotleft" unicode="&#xab;" horiz-adv-x="1936" 
d="M245 519v184l643 430l57 -163l-485 -356l485 -351l-57 -159zM976 519v184l643 430l57 -163l-485 -356l485 -351l-57 -159z" />
    <glyph glyph-name="guilsinglleft" unicode="&#x2039;" horiz-adv-x="1204" 
d="M245 519v184l643 430l57 -163l-485 -356l485 -351l-57 -159z" />
    <glyph glyph-name="registered" unicode="&#xae;" horiz-adv-x="2129" 
d="M194 963c0 486 384 877 870 877s871 -391 871 -877c0 -487 -385 -881 -871 -881s-870 394 -870 881zM336 963c0 -414 309 -752 728 -752s728 338 728 752c0 413 -309 751 -728 751s-728 -338 -728 -751zM738 479v962h77c71 0 166 7 258 7c253 0 359 -125 359 -274
c0 -146 -51 -257 -193 -300c70 -52 108 -151 153 -235c22 -40 43 -69 103 -160l-204 1c-33 42 -54 85 -79 138c-42 92 -83 207 -173 231c-26 -1 -75 -1 -124 -1v-369h-177zM915 980c30 -3 96 -4 130 -4c134 0 203 46 203 175c0 102 -43 170 -224 165c-43 -1 -72 -2 -109 -11
v-325z" />
    <glyph glyph-name="macron" unicode="&#xaf;" horiz-adv-x="647" 
d="M50 1425v163h547v-163h-547z" />
    <glyph glyph-name="degree" unicode="&#xb0;" horiz-adv-x="912" 
d="M456 939c-188 0 -340 144 -340 339c0 197 150 339 340 339c189 0 340 -144 340 -339c0 -197 -150 -339 -340 -339zM456 1083c102 0 185 82 185 195c0 112 -83 194 -185 194s-184 -81 -184 -194c0 -112 82 -195 184 -195z" />
    <glyph glyph-name="plusminus" unicode="&#xb1;" horiz-adv-x="1393" 
d="M250 0v165h892v-165h-892zM607 285v236l7 171l-165 -7h-220v177h220l165 -11l-7 172v228h178v-228l-8 -172l141 11h246v-177h-246l-141 7l8 -171v-236h-178z" />
    <glyph glyph-name="acute" unicode="&#xb4;" horiz-adv-x="594" 
d="M161 1294l-111 90c114 125 240 261 338 399l156 -135c-49 -83 -310 -326 -383 -354z" />
    <glyph glyph-name="paragraph" unicode="&#xb6;" horiz-adv-x="1320" 
d="M517 0v777c-281 0 -434 138 -434 471c0 279 197 463 574 463c95 0 353 -17 469 -20v-1691h-184v1548h-241v-1548h-184z" />
    <glyph glyph-name="periodcentered" unicode="&#xb7;" horiz-adv-x="602" 
d="M147 715c-2 95 78 174 161 174c95 0 145 -70 147 -151c3 -99 -76 -175 -162 -175c-76 0 -143 64 -146 152z" />
    <glyph glyph-name="cedilla" unicode="&#xb8;" horiz-adv-x="485" 
d="M251 30l83 4l43 -4c47 -49 65 -148 57 -259c-14 -169 -124 -235 -240 -235c-54 0 -124 12 -147 28l15 142c17 -11 51 -14 82 -14c65 0 120 42 127 150c13 97 -1 149 -20 188z" />
    <glyph glyph-name="guillemotright" unicode="&#xbb;" horiz-adv-x="1936" 
d="M959 703v-184l-643 -415l-57 159l485 351l-485 356l57 163zM1690 703v-184l-643 -415l-57 159l485 351l-485 356l57 163z" />
    <glyph glyph-name="questiondown" unicode="&#xbf;" horiz-adv-x="1047" 
d="M682 1030c44 -54 85 -159 89 -276c8 -218 -395 -295 -428 -473c-65 -263 102 -411 401 -411c99 0 157 11 181 17v-160c-22 -16 -117 -42 -216 -42c-482 0 -644 292 -585 585c52 296 420 329 435 505c9 91 -14 155 -44 255h167zM713 1398c2 -92 -78 -169 -158 -169
c-93 0 -141 68 -144 146c-3 97 75 171 159 171c73 0 140 -62 143 -148z" />
    <glyph glyph-name="multiply" unicode="&#xd7;" horiz-adv-x="1370" 
d="M364 311l-130 128l338 335l-338 345l130 128l322 -354l322 354l130 -128l-338 -342l338 -338l-130 -128l-322 343z" />
    <glyph glyph-name="germandbls" unicode="&#xdf;" horiz-adv-x="1268" 
d="M174 0v966v8h-138v129l153 39c58 305 272 437 530 437c208 0 378 -97 378 -276c0 -222 -224 -289 -224 -426c0 -206 363 -232 363 -564c0 -243 -202 -329 -397 -329c-101 0 -192 16 -231 33v173c37 -21 116 -52 239 -52c81 0 166 37 166 151c-2 221 -343 246 -343 562
c0 188 209 249 209 424c0 100 -71 148 -197 148c-167 0 -288 -109 -288 -475v-948h-220z" />
    <glyph glyph-name="eth" unicode="&#xf0;" horiz-adv-x="1190" 
d="M95 553c0 375 206 602 511 601c88 -1 160 -29 214 -74c-54 149 -150 276 -267 375l-134 -149l-115 90l133 143c-68 44 -140 81 -215 107l52 125c97 -30 186 -70 268 -118c58 63 134 158 134 158l117 -90s-71 -84 -132 -147l13 -10c282 -219 440 -554 440 -956
c0 -424 -202 -631 -507 -635c-313 -4 -512 223 -512 580zM616 124c170 0 279 169 279 430c0 104 4 189 -5 295c-13 62 -95 141 -275 141c-205 0 -302 -178 -302 -429c0 -252 101 -437 303 -437z" />
    <glyph glyph-name="endash" unicode="&#x2013;" horiz-adv-x="1692" 
d="M240 683v177h1212v-177h-1212z" />
    <glyph glyph-name="emdash" unicode="&#x2014;" horiz-adv-x="2343" 
d="M240 683v177h1863v-177h-1863z" />
    <glyph glyph-name="quoteleft" unicode="&#x2018;" horiz-adv-x="520" 
d="M304 960c-120 43 -206 183 -206 366c0 206 130 357 207 407l96 -61v-32c-60 -50 -97 -177 -97 -272c0 -104 61 -195 113 -219v-62z" />
    <glyph glyph-name="quoteright" unicode="&#x2019;" horiz-adv-x="520" 
d="M223 960l-96 61v32c48 50 77 177 77 272c0 109 -51 204 -93 230v61l143 117c90 -43 156 -142 156 -325c0 -250 -118 -398 -187 -448z" />
    <glyph glyph-name="quotesinglbase" unicode="&#x201a;" horiz-adv-x="520" 
d="M223 -543l-96 61v32c48 50 77 177 77 272c0 109 -51 204 -93 230v61l143 117c90 -43 156 -142 156 -325c0 -250 -118 -398 -187 -448z" />
    <glyph glyph-name="quotedblleft" unicode="&#x201c;" horiz-adv-x="1029" 
d="M304 960c-120 43 -206 183 -206 366c0 206 130 357 207 407l96 -61v-32c-60 -50 -97 -177 -97 -272c0 -104 61 -195 113 -219v-62zM820 960c-120 43 -206 183 -206 366c0 206 130 357 207 407l96 -61v-32c-60 -50 -97 -177 -97 -272c0 -104 61 -195 113 -219v-62z" />
    <glyph glyph-name="quotedblright" unicode="&#x201d;" horiz-adv-x="1029" 
d="M223 960l-96 61v32c48 50 77 177 77 272c0 109 -51 204 -93 230v61l143 117c90 -43 156 -142 156 -325c0 -250 -118 -398 -187 -448zM739 960l-96 61v32c48 50 77 177 77 272c0 109 -51 204 -93 230v61l143 117c90 -43 156 -142 156 -325c0 -250 -118 -398 -187 -448z
" />
    <glyph glyph-name="quotedblbase" unicode="&#x201e;" horiz-adv-x="1029" 
d="M223 -517l-96 61v32c48 50 77 177 77 272c0 109 -51 204 -93 230v61l143 117c90 -43 156 -142 156 -325c0 -250 -118 -398 -187 -448zM736 -517l-96 61v32c48 50 77 177 77 272c0 109 -51 204 -93 230v61l143 117c90 -43 156 -142 156 -325c0 -250 -118 -398 -187 -448z
" />
    <glyph glyph-name="dagger" unicode="&#x2020;" horiz-adv-x="1026" 
d="M425 200l-11 928l-290 -3l1 163l289 -4l-3 374h204l-3 -374l290 4v-163l-290 3l-11 -928h-176z" />
    <glyph glyph-name="bullet" unicode="&#x2022;" horiz-adv-x="855" 
d="M418 499c-121 0 -218 104 -211 225c7 127 111 228 231 228s217 -98 210 -224c-6 -126 -110 -229 -230 -229z" />
    <glyph glyph-name="guilsinglright" unicode="&#x203a;" horiz-adv-x="1204" 
d="M959 703v-184l-643 -415l-57 159l485 351l-485 356l57 163z" />
    <glyph glyph-name="quotedbl" unicode="&#x22;" horiz-adv-x="1284" 
d="M298 966l-33 719h242l-32 -719h-177zM809 966l-33 719h242l-32 -719h-177z" />
    <glyph glyph-name="logicalnot" unicode="&#xac;" horiz-adv-x="1470" 
d="M240 688v164h990v-529h-200v365h-790z" />
    <glyph glyph-name="yen" unicode="&#xa5;" horiz-adv-x="1532" 
d="M274 293v143h385v231h-385v143h336l-446 712h238l304 -525l64 -134l62 141l312 518h233l-457 -712h319v-143h-360v-231h360v-143h-360v-293h-220v293h-385z" />
    <glyph glyph-name="divide" unicode="&#xf7;" horiz-adv-x="1393" 
d="M692 1029c-76 0 -141 54 -141 139c0 90 82 161 164 161c95 0 142 -62 142 -140c0 -94 -80 -160 -165 -160zM229 688v170h935v-170h-935zM550 363c0 90 82 161 164 161c95 0 142 -62 142 -139c0 -95 -80 -160 -165 -160c-76 0 -141 54 -141 138z" />
    <glyph glyph-name="daggerdbl" unicode="&#x2021;" horiz-adv-x="1026" 
d="M124 476v163l289 -3v492l-289 -3l1 163l288 -3l-3 373h205l-4 -373l291 3v-163l-291 3v-492l290 3v-163l-290 3l-16 -835h-167l-15 835z" />
    <glyph glyph-name="cent" unicode="&#xa2;" horiz-adv-x="1183" 
d="M157 558c0 307 153 552 460 592l6 227h149l-5 -223c111 -8 190 -37 221 -57l-35 -174c-60 42 -140 63 -256 63c-157 0 -317 -111 -327 -389c-10 -290 136 -447 321 -447c114 0 221 36 272 67l45 -125c-58 -54 -160 -92 -274 -104l-3 -204h-150l4 205
c-275 34 -428 268 -428 569z" />
    <glyph glyph-name="circumflex" unicode="&#x2c6;" horiz-adv-x="836" 
d="M173 1293l-126 56l276 333h198l268 -332l-135 -56l-232 222z" />
    <glyph glyph-name="tilde" unicode="&#x2dc;" horiz-adv-x="927" 
d="M132 1385l-85 68c45 100 149 195 270 195c161 0 192 -137 295 -137c90 0 142 53 183 98l86 -72c-51 -107 -148 -193 -270 -193c-171 0 -192 138 -296 138c-80 0 -142 -54 -183 -97z" />
    <glyph glyph-name="onehalf" unicode="&#xbd;" horiz-adv-x="2479" 
d="M1535 -3l-43 110c147 78 522 334 522 569c0 128 -76 183 -186 183c-111 0 -197 -51 -275 -142l-91 109c63 92 215 192 404 192c254 0 362 -155 362 -304c0 -215 -170 -407 -403 -557l458 5v-165h-748zM491 663v763c-84 -18 -120 -35 -206 -51l-40 121
c121 35 305 154 352 193l105 -25v-1001h-211zM749 0l539 1530h200l-542 -1530h-197z" />
    <glyph glyph-name="twosuperior" unicode="&#xb2;" horiz-adv-x="1194" 
d="M248 665l-43 110c147 78 522 334 522 569c0 128 -76 183 -186 183c-111 0 -197 -51 -275 -142l-91 109c63 92 215 192 404 192c254 0 362 -155 362 -304c0 -215 -170 -407 -403 -557l458 5v-165h-748z" />
    <glyph glyph-name="onesuperior" unicode="&#xb9;" horiz-adv-x="1026" 
d="M468 663v763c-84 -18 -120 -35 -206 -51l-40 121c121 35 305 154 352 193l105 -25v-1001h-211z" />
    <glyph glyph-name="onequarter" unicode="&#xbc;" horiz-adv-x="2479" 
d="M1871 -48v282h-498l-52 94l482 811h68l131 -77l-396 -608l-42 -69h308v3l8 249l195 20v-272h194l1 -151h-195v-282h-204zM748 0l539 1530h200l-542 -1530h-197zM491 663v763c-84 -18 -120 -35 -206 -51l-40 121c121 35 305 154 352 193l105 -25v-1001h-211z" />
    <glyph glyph-name="threequarters" unicode="&#xbe;" horiz-adv-x="2479" 
d="M1871 -48v282h-498l-52 94l482 811h68l131 -77l-396 -608l-42 -69h308v3l8 249l195 20v-272h194l1 -151h-195v-282h-204zM182 606l-14 142c70 -14 107 -22 203 -21c175 2 252 66 252 194c0 108 -88 173 -215 180l-88 -28l-37 128c43 8 113 34 155 53
c78 35 130 91 126 175c-3 80 -72 118 -158 117c-64 -1 -160 -30 -229 -79l-62 119c90 74 251 105 313 105c232 0 337 -109 337 -238c0 -115 -68 -209 -208 -270c186 -8 277 -134 277 -256c0 -193 -133 -349 -443 -349c-75 0 -151 16 -209 28zM748 0l539 1530h200l-542 -1530
h-197z" />
    <glyph glyph-name="threesuperior" unicode="&#xb3;" horiz-adv-x="1194" 
d="M329 606l-14 142c70 -14 107 -22 203 -21c175 2 252 66 252 194c0 108 -88 173 -215 180l-88 -28l-37 128c43 8 113 34 155 53c78 35 130 91 126 175c-3 80 -72 118 -158 117c-64 -1 -160 -30 -229 -79l-62 119c90 74 251 105 313 105c232 0 337 -109 337 -238
c0 -115 -68 -209 -208 -270c186 -8 277 -134 277 -256c0 -193 -133 -349 -443 -349c-75 0 -151 16 -209 28z" />
    <glyph glyph-name="percent" unicode="%" horiz-adv-x="1962" 
d="M557 0l650 1530h190l-650 -1530h-190zM429 665c-225 -4 -354 188 -354 410c0 268 183 415 383 421c247 6 354 -182 354 -413c0 -267 -183 -413 -383 -418zM442 812c112 0 175 100 175 264c0 165 -63 274 -171 274c-113 0 -176 -103 -176 -267c0 -155 63 -271 172 -271z
M1150 460c0 268 183 415 384 421c246 6 353 -182 353 -413c0 -267 -183 -412 -383 -417c-224 -5 -354 187 -354 409zM1346 468c0 -155 62 -271 171 -271c113 0 175 100 175 264c0 165 -62 275 -171 275c-113 0 -175 -103 -175 -268z" />
    <glyph glyph-name="oslash" unicode="&#xf8;" horiz-adv-x="1213" 
d="M289 -164l68 201c-188 97 -264 316 -261 557c5 366 227 562 520 562c42 0 81 -4 117 -11l67 197l125 -36l-69 -203c188 -97 264 -316 261 -557c-6 -366 -227 -562 -521 -562c-42 0 -80 4 -116 11l-66 -195zM421 226l259 762c-22 6 -45 9 -69 10
c-192 4 -292 -144 -292 -407c0 -149 33 -282 102 -365zM533 151c21 -7 44 -11 69 -11c193 -4 292 152 292 416c0 148 -32 279 -102 359z" />
    <glyph glyph-name="Thorn" unicode="&#xde;" horiz-adv-x="1262" 
d="M194 0v1522h223v-275c70 5 149 12 233 12c346 0 532 -149 532 -466c0 -321 -202 -508 -581 -508c-86 0 -145 5 -184 7v-292h-223zM417 455c60 -8 111 -8 162 -8c201 0 381 52 381 343c0 221 -125 317 -384 309c-53 -2 -109 -6 -159 -17v-627z" />
    <glyph glyph-name="ordfeminine" unicode="&#xaa;" horiz-adv-x="1034" 
d="M431 677c-180 0 -305 88 -305 248c0 136 73 209 180 251c117 44 261 56 372 56v64c0 136 -68 148 -193 148c-89 0 -234 -50 -277 -80l-56 121c37 35 222 114 377 114c213 0 347 -71 347 -297v-615h-71c-73 0 -116 -6 -116 72v14c-46 -47 -143 -96 -258 -96zM467 824
c99 0 190 45 210 64l1 -1v223c-96 0 -197 2 -270 -34c-59 -29 -88 -65 -88 -137c0 -79 65 -115 147 -115z" />
    <glyph glyph-name="ordmasculine" unicode="&#xba;" horiz-adv-x="1033" 
d="M511 677c-255 0 -403 187 -400 474c5 327 229 448 422 448c254 0 393 -191 389 -468c-5 -328 -209 -454 -411 -454zM522 825c125 2 192 87 192 304c0 201 -67 325 -192 323c-117 -2 -203 -83 -203 -301c0 -200 76 -328 203 -326z" />
    <glyph glyph-name="section" unicode="&#xa7;" horiz-adv-x="1358" 
d="M225 -100l42 166c54 -39 195 -96 378 -95c150 1 288 42 288 159c0 256 -718 231 -718 637c0 119 57 227 139 309c-76 63 -128 142 -128 256c0 267 259 341 465 341c187 0 308 -39 366 -73l-42 -166c-46 31 -148 76 -328 75c-136 -1 -261 -43 -261 -153
c0 -284 718 -284 718 -703c0 -108 -45 -207 -113 -287c61 -53 101 -122 101 -216c0 -265 -271 -343 -491 -343c-187 0 -354 50 -416 93zM416 803c0 -200 278 -249 487 -354c23 55 42 119 42 168c0 203 -265 268 -473 381c-29 -59 -56 -136 -56 -195z" />
    <glyph glyph-name="AE" unicode="&#xc6;" horiz-adv-x="1860" 
d="M-73 0l725 1522h1061v-172h-653v-480h479v-172h-479v-523h726v-175h-949v385h-481l-183 -385h-246zM435 551h402v825h-10z" />
    <glyph glyph-name="dollar" unicode="$" horiz-adv-x="1372" 
d="M235 71l53 183c75 -46 220 -93 359 -93c191 0 303 61 303 211s-123 213 -337 317c-189 92 -381 238 -381 458c0 250 191 359 401 384l2 231h163l-2 -226c151 -8 249 -47 296 -77l-45 -176c-70 42 -148 80 -312 80c-144 0 -290 -55 -290 -186c0 -149 84 -202 303 -315
c196 -101 421 -226 421 -464c0 -251 -166 -383 -412 -409l-2 -226h-163l2 223c-171 10 -311 54 -359 85z" />
    <glyph glyph-name="Oslash" unicode="&#xd8;" 
d="M380 -164l79 219c-231 122 -366 387 -359 717c10 508 322 766 708 766c62 0 121 -8 177 -22l80 222l125 -36l-83 -231c230 -114 368 -368 362 -710c-10 -507 -302 -769 -691 -777c-71 -1 -137 7 -198 24l-75 -208zM527 244l398 1105c-38 12 -80 19 -124 19
c-257 0 -476 -193 -476 -610c0 -209 68 -405 202 -514zM641 179c44 -16 92 -24 144 -24c277 0 458 215 458 617c0 215 -68 411 -202 516z" />
    <glyph glyph-name="Euro" unicode="&#x20ac;" horiz-adv-x="1505" 
d="M114 511v143h193c-1 21 -1 43 -1 66c0 57 3 111 10 163h-170v143h197c84 317 308 500 624 512c214 8 290 -42 372 -61l-53 -174c-76 42 -144 67 -325 68c-191 1 -333 -119 -389 -345h529v-143h-552c-3 -32 -4 -65 -4 -99c0 -45 1 -88 4 -130h518v-143h-502
c39 -222 145 -379 390 -379c145 0 283 41 356 93l60 -165c-88 -14 -151 -88 -445 -88c-341 0 -545 211 -603 539h-209z" />
    <glyph glyph-name="mu" unicode="&#xb5;" horiz-adv-x="1360" 
d="M383 88l32 -459h-205v1511h219v-741c0 -182 80 -242 246 -242c81 0 166 50 218 88v895h220v-906c0 -62 12 -76 34 -76c13 0 41 5 78 27l31 -98c-14 -21 -105 -105 -213 -105c-72 0 -125 35 -120 138c-48 -53 -123 -136 -268 -136c-127 0 -212 25 -272 104z" />
    <glyph glyph-name="thorn" unicode="&#xfe;" horiz-adv-x="1238" 
d="M373 2l13 -171v-338h-220v2168h220v-472l-8 -159c53 54 143 126 313 126c240 0 450 -174 450 -544c0 -369 -229 -630 -575 -630c-62 0 -130 9 -193 20zM386 184c37 -26 108 -40 205 -40c183 0 322 152 326 438c3 274 -101 401 -287 401c-109 0 -196 -55 -244 -93v-706z
" />
    <glyph glyph-name="oe" unicode="&#x153;" horiz-adv-x="1920" 
d="M593 -16c-363 0 -501 285 -497 610c6 366 228 562 520 562c186 0 312 -75 390 -193c85 117 218 190 397 193c228 4 411 -145 420 -430c0 -86 -1 -153 -11 -204h-703c0 -7 1 -13 1 -20c13 -268 160 -351 345 -351c77 0 233 28 289 61l42 -126c-75 -61 -250 -102 -387 -102
c-180 0 -316 67 -401 191c-93 -126 -237 -191 -405 -191zM1114 668h502c10 163 -26 332 -226 332c-137 0 -250 -86 -276 -332zM599 140c193 -4 296 152 296 416c0 244 -89 439 -285 442c-189 4 -291 -144 -291 -407c0 -244 89 -447 280 -451z" />
    <glyph glyph-name="OE" unicode="&#x152;" horiz-adv-x="2063" 
d="M775 -16c-420 -8 -684 330 -675 785c10 502 296 755 705 769c68 2 157 -7 235 -40v24h876v-172h-653v-480h479v-172h-479v-523h726v-175h-949v50c-72 -40 -152 -64 -265 -66zM784 152c100 0 186 26 256 80v1077c-63 41 -141 60 -240 60c-250 0 -476 -186 -476 -611
c0 -321 158 -606 460 -606z" />
    <glyph glyph-name="trademark" unicode="&#x2122;" horiz-adv-x="2218" 
d="M1008 767l41 776h293l144 -405l38 -141l30 141l129 405h276l74 -776h-177l-39 536l-7 125l-43 -133l-183 -535h-118l-209 535l-51 135l-3 -127l-25 -536h-170zM426 767v624l-248 -1l-1 153h689v-153l-256 1v-624h-184z" />
    <glyph glyph-name="perthousand" unicode="&#x2030;" horiz-adv-x="2800" 
d="M1988 460c0 268 183 415 384 421c246 6 353 -182 353 -413c0 -267 -183 -412 -383 -417c-224 -5 -354 187 -354 409zM2184 468c0 -155 62 -271 171 -271c113 0 175 100 175 264c0 165 -62 275 -171 275c-113 0 -175 -103 -175 -268zM557 0l650 1530h190l-650 -1530h-190z
M429 665c-225 -4 -354 188 -354 410c0 268 183 415 383 421c247 6 354 -182 354 -413c0 -267 -183 -413 -383 -418zM442 812c112 0 175 100 175 264c0 165 -63 274 -171 274c-113 0 -176 -103 -176 -267c0 -155 63 -271 172 -271zM1150 460c0 268 183 415 384 421
c246 6 353 -182 353 -413c0 -267 -183 -412 -383 -417c-224 -5 -354 187 -354 409zM1346 468c0 -155 62 -271 171 -271c113 0 175 100 175 264c0 165 -62 275 -171 275c-113 0 -175 -103 -175 -268z" />
    <glyph glyph-name="Eth" unicode="&#xd0;" horiz-adv-x="1472" 
d="M194 0v720h-128v149h128v653h112c98 0 233 16 360 16c489 0 722 -271 722 -734c0 -519 -286 -829 -746 -820c-101 2 -254 16 -363 16h-85zM418 168c67 -15 173 -20 259 -19c279 6 479 185 479 622c0 450 -184 606 -542 606c-82 0 -152 -7 -196 -16v-492h394v-149h-394
v-552z" />
    <glyph glyph-name="florin" unicode="&#x192;" horiz-adv-x="1169" 
d="M310 -356l112 1328h-205l8 114l209 54l8 64c43 353 238 481 465 481c89 0 135 -11 150 -18l-13 -179c-19 11 -75 19 -165 19c-105 0 -193 -51 -215 -239l-15 -128h299l-13 -168h-299l-111 -1328h-215z" />
    <glyph glyph-name="DEL" horiz-adv-x="0" 
 />
    <glyph glyph-name="nbspace" unicode="&#xa0;" horiz-adv-x="655" 
 />
    <glyph glyph-name="Cacute" unicode="&#x106;" horiz-adv-x="1313" 
d="M95 753c0 504 330 785 704 785c231 0 345 -44 399 -57l-32 -198c-29 15 -123 74 -352 74c-309 0 -498 -229 -498 -589c0 -356 187 -608 497 -608c156 0 321 46 374 93l1 -189c-88 -35 -195 -80 -384 -80c-430 0 -709 308 -709 769zM760 1573l-93 92c7 6 338 302 343 315
l146 -133c-93 -95 -281 -233 -396 -274z" />
    <glyph glyph-name="K" unicode="K" horiz-adv-x="1371" 
d="M194 0v1522h223v-764l603 764h263l-539 -656c98 -161 372 -541 493 -756l65 -110h-257c-18 26 -26 51 -61 113c-98 176 -267 413 -378 588l-189 -220v-481h-223z" />
    <glyph glyph-name="Scaron" unicode="&#x160;" horiz-adv-x="1132" 
d="M128 71l53 183c75 -46 220 -93 359 -93c191 0 303 61 303 211s-123 213 -337 317c-189 92 -381 238 -381 458c0 292 259 391 506 391c184 0 301 -45 354 -79l-45 -176c-70 42 -148 80 -312 80c-144 0 -290 -55 -290 -186c0 -149 84 -202 303 -315
c196 -101 421 -226 421 -464c0 -282 -209 -414 -507 -414c-200 0 -373 52 -427 87zM506 1670l-246 260l128 60l216 -174l221 174l120 -57l-242 -263h-197z" />
    <glyph glyph-name="Ydieresis" unicode="&#x178;" horiz-adv-x="1264" 
d="M523 0v593l-501 929h238l338 -660l43 -105l36 105l331 660h234l-493 -929v-593h-226zM887 1667c-74 0 -137 51 -137 133c0 88 80 155 159 155c94 0 138 -59 138 -134c0 -92 -76 -154 -160 -154zM391 1667c-74 0 -137 51 -137 133c0 88 79 155 159 155
c94 0 138 -59 138 -134c0 -92 -76 -154 -160 -154z" />
    <glyph glyph-name="Zcaron" unicode="&#x17d;" horiz-adv-x="1294" 
d="M582 1670l-246 260l128 60l216 -174l221 174l120 -57l-242 -263h-197zM89 84l777 1189l58 71h-750v178h996l46 -81l-760 -1181l-74 -85h775v-175h-1023z" />
    <glyph glyph-name="Ntilde" unicode="&#xd1;" horiz-adv-x="1556" 
d="M461 1703l-85 68c47 114 175 195 282 195c158 0 189 -139 291 -139c73 0 134 55 175 99l86 -71c-47 -114 -175 -194 -281 -194c-158 0 -189 144 -293 144c-72 0 -134 -57 -175 -102zM193 0v1522h204l651 -1005l123 -226l-13 254v977h205v-1522h-207l-630 967l-140 249
l12 -264v-952h-205z" />
    <glyph glyph-name="Ograve" unicode="&#xd2;" 
d="M845 1573c-97 34 -320 187 -397 274l146 133c5 -13 336 -309 343 -315zM778 -16c-421 -9 -687 327 -678 788c10 508 322 766 708 766c404 0 670 -305 661 -777c-10 -507 -302 -769 -691 -777zM785 155c277 0 458 215 458 617c0 319 -150 596 -442 596
c-257 0 -476 -193 -476 -610c0 -316 156 -603 460 -603z" />
    <glyph glyph-name="Oacute" unicode="&#xd3;" 
d="M773 1573l-93 92c7 6 338 302 343 315l146 -133c-93 -95 -281 -233 -396 -274zM778 -16c-421 -9 -687 327 -678 788c10 508 322 766 708 766c404 0 670 -305 661 -777c-10 -507 -302 -769 -691 -777zM785 155c277 0 458 215 458 617c0 319 -150 596 -442 596
c-257 0 -476 -193 -476 -610c0 -316 156 -603 460 -603z" />
    <glyph glyph-name="Ocircumflex" unicode="&#xd4;" 
d="M778 -16c-421 -9 -687 327 -678 788c10 508 322 766 708 766c404 0 670 -305 661 -777c-10 -507 -302 -769 -691 -777zM785 155c277 0 458 215 458 617c0 319 -150 596 -442 596c-257 0 -476 -193 -476 -610c0 -316 156 -603 460 -603zM587 1632l-137 57l259 301h197
l262 -298l-144 -60l-216 202z" />
    <glyph glyph-name="Otilde" unicode="&#xd5;" 
d="M477 1703l-85 68c47 114 175 195 282 195c158 0 189 -139 291 -139c73 0 134 55 175 99l86 -71c-47 -114 -175 -194 -281 -194c-158 0 -189 144 -293 144c-72 0 -134 -57 -175 -102zM778 -16c-421 -9 -687 327 -678 788c10 508 322 766 708 766c404 0 670 -305 661 -777
c-10 -507 -302 -769 -691 -777zM785 155c277 0 458 215 458 617c0 319 -150 596 -442 596c-257 0 -476 -193 -476 -610c0 -316 156 -603 460 -603z" />
    <glyph glyph-name="Odieresis" unicode="&#xd6;" 
d="M1045 1667c-74 0 -137 51 -137 133c0 88 80 155 159 155c94 0 138 -59 138 -134c0 -92 -76 -154 -160 -154zM549 1667c-74 0 -137 51 -137 133c0 88 79 155 159 155c94 0 138 -59 138 -134c0 -92 -76 -154 -160 -154zM778 -16c-421 -9 -687 327 -678 788
c10 508 322 766 708 766c404 0 670 -305 661 -777c-10 -507 -302 -769 -691 -777zM785 155c277 0 458 215 458 617c0 319 -150 596 -442 596c-257 0 -476 -193 -476 -610c0 -316 156 -603 460 -603z" />
    <glyph glyph-name="Racute" unicode="&#x154;" horiz-adv-x="1367" 
d="M194 0v1522h97c99 0 241 16 388 16c310 0 518 -124 518 -428c0 -224 -104 -362 -275 -422c141 -98 222 -392 323 -576c20 -38 40 -75 61 -112h-253c-18 26 -25 48 -55 112c-82 178 -156 487 -316 538c-59 -2 -139 -2 -265 -2v-648h-223zM417 806c44 -5 181 -6 235 -6
c197 0 317 88 317 299c0 189 -89 275 -323 275c-83 0 -165 -5 -229 -18v-550zM675 1573l-93 92c7 6 338 302 343 315l146 -133c-93 -95 -281 -233 -396 -274z" />
    <glyph glyph-name="Rcaron" unicode="&#x158;" horiz-adv-x="1367" 
d="M613 1670l-246 260l128 60l216 -174l221 174l120 -57l-242 -263h-197zM194 0v1522h97c99 0 241 16 388 16c310 0 518 -124 518 -428c0 -224 -104 -362 -275 -422c141 -98 222 -392 323 -576c20 -38 40 -75 61 -112h-253c-18 26 -25 48 -55 112c-82 178 -156 487 -316 538
c-59 -2 -139 -2 -265 -2v-648h-223zM417 806c44 -5 181 -6 235 -6c197 0 317 88 317 299c0 189 -89 275 -323 275c-83 0 -165 -5 -229 -18v-550z" />
    <glyph glyph-name="Ugrave" unicode="&#xd9;" horiz-adv-x="1463" 
d="M782 1573c-97 34 -320 187 -397 274l146 133c5 -13 336 -309 343 -315zM159 633v889h223l-1 -836c0 -420 133 -528 367 -528c206 0 335 109 335 528v836h222v-892c0 -415 -183 -646 -564 -646c-418 0 -583 237 -582 649z" />
    <glyph glyph-name="Uacute" unicode="&#xda;" horiz-adv-x="1463" 
d="M710 1573l-93 92c7 6 338 302 343 315l146 -133c-93 -95 -281 -233 -396 -274zM159 633v889h223l-1 -836c0 -420 133 -528 367 -528c206 0 335 109 335 528v836h222v-892c0 -415 -183 -646 -564 -646c-418 0 -583 237 -582 649z" />
    <glyph glyph-name="Ucircumflex" unicode="&#xdb;" horiz-adv-x="1463" 
d="M159 633v889h223l-1 -836c0 -420 133 -528 367 -528c206 0 335 109 335 528v836h222v-892c0 -415 -183 -646 -564 -646c-418 0 -583 237 -582 649zM524 1632l-137 57l259 301h197l262 -298l-144 -60l-216 202z" />
    <glyph glyph-name="Udieresis" unicode="&#xdc;" horiz-adv-x="1463" 
d="M982 1667c-74 0 -137 51 -137 133c0 88 80 155 159 155c94 0 138 -59 138 -134c0 -92 -76 -154 -160 -154zM486 1667c-74 0 -137 51 -137 133c0 88 79 155 159 155c94 0 138 -59 138 -134c0 -92 -76 -154 -160 -154zM159 633v889h223l-1 -836c0 -420 133 -528 367 -528
c206 0 335 109 335 528v836h222v-892c0 -415 -183 -646 -564 -646c-418 0 -583 237 -582 649z" />
    <glyph glyph-name="Yacute" unicode="&#xdd;" horiz-adv-x="1264" 
d="M523 0v593l-501 929h238l338 -660l43 -105l36 105l331 660h234l-493 -929v-593h-226zM615 1573l-93 92c7 6 338 302 343 315l146 -133c-93 -95 -281 -233 -396 -274z" />
    <glyph glyph-name="ae" unicode="&#xe6;" horiz-adv-x="1780" 
d="M94 305c0 148 93 253 222 309c131 55 289 74 435 74v115c0 163 -73 188 -224 188c-100 0 -264 -49 -323 -86l-54 147c44 26 255 105 431 105c156 0 270 -30 327 -143c85 87 204 139 356 142c227 4 410 -145 419 -430c0 -86 0 -153 -11 -204h-702c0 -7 1 -13 1 -20
c13 -276 159 -351 345 -351c76 0 233 28 289 61l42 -126c-75 -61 -250 -102 -388 -102c-177 0 -311 60 -397 178c-106 -125 -253 -178 -413 -178c-202 0 -355 121 -355 321zM975 668h502c10 163 -26 332 -226 332c-137 0 -250 -86 -276 -332zM315 324
c0 -116 57 -176 189 -176c107 0 241 54 296 131c-28 76 -44 166 -46 271l-1 -2c-111 0 -234 -16 -315 -55c-74 -35 -123 -81 -123 -169z" />
    <glyph glyph-name="Agrave" unicode="&#xc0;" horiz-adv-x="1407" 
d="M21 0l582 1538h215l568 -1538h-241l-130 385h-622l-136 -385h-236zM452 551h507l-204 609l-43 142l-44 -142zM739 1573c-97 34 -320 187 -397 274l146 133c5 -13 336 -309 343 -315z" />
    <glyph glyph-name="Aacute" unicode="&#xc1;" horiz-adv-x="1407" 
d="M21 0l582 1538h215l568 -1538h-241l-130 385h-622l-136 -385h-236zM452 551h507l-204 609l-43 142l-44 -142zM667 1573l-93 92c7 6 338 302 343 315l146 -133c-93 -95 -281 -233 -396 -274z" />
    <glyph glyph-name="Acircumflex" unicode="&#xc2;" horiz-adv-x="1407" 
d="M21 0l582 1538h215l568 -1538h-241l-130 385h-622l-136 -385h-236zM452 551h507l-204 609l-43 142l-44 -142zM481 1632l-137 57l259 301h197l262 -298l-144 -60l-216 202z" />
    <glyph glyph-name="Atilde" unicode="&#xc3;" horiz-adv-x="1407" 
d="M21 0l582 1538h215l568 -1538h-241l-130 385h-622l-136 -385h-236zM452 551h507l-204 609l-43 142l-44 -142zM371 1703l-85 68c47 114 175 195 282 195c158 0 189 -139 291 -139c73 0 134 55 175 99l86 -71c-47 -114 -175 -194 -281 -194c-158 0 -189 144 -293 144
c-72 0 -134 -57 -175 -102z" />
    <glyph glyph-name="Adieresis" unicode="&#xc4;" horiz-adv-x="1407" 
d="M21 0l582 1538h215l568 -1538h-241l-130 385h-622l-136 -385h-236zM452 551h507l-204 609l-43 142l-44 -142zM939 1667c-74 0 -137 51 -137 133c0 88 80 155 159 155c94 0 138 -59 138 -134c0 -92 -76 -154 -160 -154zM443 1667c-74 0 -137 51 -137 133
c0 88 79 155 159 155c94 0 138 -59 138 -134c0 -92 -76 -154 -160 -154z" />
    <glyph glyph-name="Aring" unicode="&#xc5;" horiz-adv-x="1407" 
d="M21 0l550 1453c-119 36 -193 127 -190 255c3 191 164 262 320 262c195 0 322 -92 321 -263c-2 -132 -74 -212 -175 -248l539 -1459h-241l-130 385h-622l-136 -385h-236zM699 1561c99 -1 169 38 169 145c0 93 -74 139 -169 140c-80 1 -162 -29 -162 -138
c0 -89 62 -145 162 -147zM452 551h507l-204 609l-43 142l-44 -142z" />
    <glyph glyph-name="Ccedilla" unicode="&#xc7;" horiz-adv-x="1313" 
d="M516 -294c17 -11 51 -14 82 -14c65 0 120 42 127 150c9 66 5 112 -5 146c-382 37 -625 334 -625 765c0 504 330 785 704 785c231 0 345 -44 399 -57l-32 -198c-29 15 -123 74 -352 74c-309 0 -498 -229 -498 -589c0 -356 187 -608 497 -608c156 0 321 46 374 93l1 -189
c-79 -32 -173 -70 -328 -78c25 -54 34 -131 28 -215c-14 -169 -124 -235 -240 -235c-54 0 -124 12 -147 28z" />
    <glyph glyph-name="Egrave" unicode="&#xc8;" horiz-adv-x="1217" 
d="M717 1573c-97 34 -320 187 -397 274l146 133c5 -13 336 -309 343 -315zM194 0v1522h876v-172h-653v-480h479v-172h-479v-523h726v-175h-949z" />
    <glyph glyph-name="Eacute" unicode="&#xc9;" horiz-adv-x="1217" 
d="M645 1573l-93 92c7 6 338 302 343 315l146 -133c-93 -95 -281 -233 -396 -274zM194 0v1522h876v-172h-653v-480h479v-172h-479v-523h726v-175h-949z" />
    <glyph glyph-name="Ecircumflex" unicode="&#xca;" horiz-adv-x="1217" 
d="M194 0v1522h876v-172h-653v-480h479v-172h-479v-523h726v-175h-949zM459 1632l-137 57l259 301h197l262 -298l-144 -60l-216 202z" />
    <glyph glyph-name="Edieresis" unicode="&#xcb;" horiz-adv-x="1217" 
d="M917 1667c-74 0 -137 51 -137 133c0 88 80 155 159 155c94 0 138 -59 138 -134c0 -92 -76 -154 -160 -154zM421 1667c-74 0 -137 51 -137 133c0 88 79 155 159 155c94 0 138 -59 138 -134c0 -92 -76 -154 -160 -154zM194 0v1522h876v-172h-653v-480h479v-172h-479v-523
h726v-175h-949z" />
    <glyph glyph-name="Igrave" unicode="&#xcc;" horiz-adv-x="640" 
d="M207 0v1522h226v-1522h-226zM358 1573c-97 34 -320 187 -397 274l146 133c5 -13 336 -309 343 -315z" />
    <glyph glyph-name="Iacute" unicode="&#xcd;" horiz-adv-x="640" 
d="M207 0v1522h226v-1522h-226zM286 1573l-93 92c7 6 338 302 343 315l146 -133c-93 -95 -281 -233 -396 -274z" />
    <glyph glyph-name="Icircumflex" unicode="&#xce;" horiz-adv-x="640" 
d="M207 0v1522h226v-1522h-226zM100 1632l-137 57l259 301h197l262 -298l-144 -60l-216 202z" />
    <glyph glyph-name="Idieresis" unicode="&#xcf;" horiz-adv-x="640" 
d="M207 0v1522h226v-1522h-226zM558 1667c-74 0 -137 51 -137 133c0 88 80 155 159 155c94 0 138 -59 138 -134c0 -92 -76 -154 -160 -154zM62 1667c-74 0 -137 51 -137 133c0 88 79 155 159 155c94 0 138 -59 138 -134c0 -92 -76 -154 -160 -154z" />
    <glyph glyph-name="ccedilla" unicode="&#xe7;" horiz-adv-x="1002" 
d="M303 -294c17 -11 51 -14 82 -14c65 0 120 42 127 150c9 69 5 115 -5 150c-264 42 -410 272 -410 566c0 336 184 598 551 598c143 0 244 -35 280 -59l-35 -174c-60 42 -140 63 -256 63c-157 0 -317 -111 -327 -389c-10 -290 136 -447 321 -447c114 0 221 36 272 67
l45 -125c-62 -58 -176 -98 -301 -106c25 -54 34 -131 28 -215c-14 -169 -124 -235 -240 -235c-54 0 -124 12 -147 28z" />
    <glyph glyph-name="uni1E60" unicode="&#x1e60;" horiz-adv-x="1132" 
d="M594 1669c-75 0 -139 50 -139 133c0 87 81 154 160 154c95 0 139 -58 139 -133c0 -92 -77 -154 -160 -154zM128 71l53 183c75 -46 220 -93 359 -93c191 0 303 61 303 211s-123 213 -337 317c-189 92 -381 238 -381 458c0 292 259 391 506 391c184 0 301 -45 354 -79
l-45 -176c-70 42 -148 80 -312 80c-144 0 -290 -55 -290 -186c0 -149 84 -202 303 -315c196 -101 421 -226 421 -464c0 -282 -209 -414 -507 -414c-200 0 -373 52 -427 87z" />
    <glyph glyph-name="currency" unicode="&#xa4;" horiz-adv-x="1527" 
d="M199 308l206 206c-52 73 -83 162 -83 259c0 96 30 185 82 257l-205 205l126 128l210 -212c67 41 145 64 229 64s162 -24 229 -64l215 214l127 -127l-209 -209c51 -72 81 -161 81 -256c0 -96 -30 -184 -81 -256l205 -205l-127 -127l-210 210c-67 -41 -146 -64 -230 -64
c-83 0 -161 22 -227 62l-211 -212zM765 495c147 0 264 126 264 278s-117 277 -264 277s-266 -125 -266 -277s119 -278 266 -278z" />
    <glyph glyph-name="ellipsis" unicode="&#x2026;" horiz-adv-x="2047" 
d="M1552 130c-3 95 78 174 161 174c95 0 144 -70 147 -151c2 -99 -76 -175 -162 -175c-76 0 -144 64 -146 152zM870 130c-3 95 78 174 160 174c96 0 145 -70 147 -151c3 -99 -76 -175 -162 -175c-76 0 -143 64 -145 152zM187 130c-2 95 78 174 161 174
c95 0 145 -70 147 -151c3 -99 -76 -175 -162 -175c-76 0 -143 64 -146 152z" />
    <glyph glyph-name="aacute" unicode="&#xe1;" horiz-adv-x="1131" 
d="M94 305c0 148 86 253 222 309c132 53 305 74 434 74v115c0 163 -78 188 -243 188c-100 0 -256 -46 -308 -83l-54 144c42 26 242 105 419 105c242 0 406 -64 406 -363v-810h-90c-76 0 -117 5 -117 104v8c-61 -56 -185 -112 -320 -112c-202 0 -349 121 -349 321zM311 324
c0 -116 64 -176 197 -176c102 0 219 54 242 81v319c-83 0 -230 -16 -312 -55c-74 -35 -127 -81 -127 -169zM547 1294l-111 90c114 125 240 261 338 399l156 -135c-49 -83 -310 -326 -383 -354z" />
    <glyph glyph-name="agrave" unicode="&#xe0;" horiz-adv-x="1131" 
d="M94 305c0 148 86 253 222 309c132 53 305 74 434 74v115c0 163 -78 188 -243 188c-100 0 -256 -46 -308 -83l-54 144c42 26 242 105 419 105c242 0 406 -64 406 -363v-810h-90c-76 0 -117 5 -117 104v8c-61 -56 -185 -112 -320 -112c-202 0 -349 121 -349 321zM311 324
c0 -116 64 -176 197 -176c102 0 219 54 242 81v319c-83 0 -230 -16 -312 -55c-74 -35 -127 -81 -127 -169zM565 1294c-81 37 -318 253 -384 354l157 135c95 -123 226 -271 338 -399z" />
    <glyph glyph-name="adieresis" unicode="&#xe4;" horiz-adv-x="1131" 
d="M94 305c0 148 86 253 222 309c132 53 305 74 434 74v115c0 163 -78 188 -243 188c-100 0 -256 -46 -308 -83l-54 144c42 26 242 105 419 105c242 0 406 -64 406 -363v-810h-90c-76 0 -117 5 -117 104v8c-61 -56 -185 -112 -320 -112c-202 0 -349 121 -349 321zM311 324
c0 -116 64 -176 197 -176c102 0 219 54 242 81v319c-83 0 -230 -16 -312 -55c-74 -35 -127 -81 -127 -169zM784 1363c-72 0 -131 50 -131 130c0 83 78 149 155 149c90 0 130 -58 130 -130c0 -88 -74 -149 -154 -149zM326 1363c-72 0 -131 50 -131 130c0 83 79 149 155 149
c91 0 130 -58 130 -130c0 -88 -74 -149 -154 -149z" />
    <glyph glyph-name="atilde" unicode="&#xe3;" horiz-adv-x="1131" 
d="M94 305c0 148 86 253 222 309c132 53 305 74 434 74v115c0 163 -78 188 -243 188c-100 0 -256 -46 -308 -83l-54 144c42 26 242 105 419 105c242 0 406 -64 406 -363v-810h-90c-76 0 -117 5 -117 104v8c-61 -56 -185 -112 -320 -112c-202 0 -349 121 -349 321zM311 324
c0 -116 64 -176 197 -176c102 0 219 54 242 81v319c-83 0 -230 -16 -312 -55c-74 -35 -127 -81 -127 -169zM232 1385l-85 68c45 100 149 195 270 195c161 0 192 -137 295 -137c90 0 142 53 183 98l86 -72c-51 -107 -148 -193 -270 -193c-171 0 -192 138 -296 138
c-80 0 -142 -54 -183 -97z" />
    <glyph glyph-name="acircumflex" unicode="&#xe2;" horiz-adv-x="1131" 
d="M94 305c0 148 86 253 222 309c132 53 305 74 434 74v115c0 163 -78 188 -243 188c-100 0 -256 -46 -308 -83l-54 144c42 26 242 105 419 105c242 0 406 -64 406 -363v-810h-90c-76 0 -117 5 -117 104v8c-61 -56 -185 -112 -320 -112c-202 0 -349 121 -349 321zM311 324
c0 -116 64 -176 197 -176c102 0 219 54 242 81v319c-83 0 -230 -16 -312 -55c-74 -35 -127 -81 -127 -169zM318 1293l-126 56l276 333h198l268 -332l-135 -56l-232 222z" />
    <glyph glyph-name="aring" unicode="&#xe5;" horiz-adv-x="1131" 
d="M94 305c0 148 86 253 222 309c132 53 305 74 434 74v115c0 163 -78 188 -243 188c-100 0 -256 -46 -308 -83l-54 144c42 26 242 105 419 105c242 0 406 -64 406 -363v-810h-90c-76 0 -117 5 -117 104v8c-61 -56 -185 -112 -320 -112c-202 0 -349 121 -349 321zM311 324
c0 -116 64 -176 197 -176c102 0 219 54 242 81v319c-83 0 -230 -16 -312 -55c-74 -35 -127 -81 -127 -169zM563 1328c-192 0 -320 110 -317 279c3 191 164 266 320 266c195 0 322 -96 321 -267c-2 -191 -152 -278 -324 -278zM564 1454c99 -1 169 44 169 151
c0 93 -74 143 -169 144c-80 1 -162 -33 -162 -142c0 -89 62 -151 162 -153z" />
    <glyph glyph-name="uni1E03" unicode="&#x1e03;" horiz-adv-x="1238" 
d="M166 64v1597h220v-472l-8 -159c53 54 143 126 313 126c240 0 450 -174 450 -544c0 -369 -229 -630 -575 -630c-159 0 -357 54 -400 82zM386 184c37 -26 108 -40 205 -40c183 0 322 152 326 438c3 274 -101 401 -287 401c-109 0 -196 -55 -244 -93v-706zM732 1347
c-75 0 -141 52 -141 135c0 87 83 156 162 156c95 0 141 -60 141 -135c0 -92 -79 -156 -162 -156z" />
    <glyph glyph-name="eacute" unicode="&#xe9;" horiz-adv-x="1123" 
d="M578 1294l-111 90c114 125 240 261 338 399l156 -135c-49 -83 -310 -326 -383 -354zM97 572c0 332 175 578 509 584c227 4 411 -145 420 -430c0 -86 0 -153 -11 -204h-703c0 -7 1 -13 1 -20c13 -268 162 -352 348 -352c76 0 228 29 284 62l42 -126
c-75 -61 -248 -102 -385 -102c-324 0 -505 218 -505 588zM317 668h503c10 163 -26 332 -226 332c-137 0 -251 -86 -277 -332z" />
    <glyph glyph-name="egrave" unicode="&#xe8;" horiz-adv-x="1123" 
d="M97 572c0 332 175 578 509 584c227 4 411 -145 420 -430c0 -86 0 -153 -11 -204h-703c0 -7 1 -13 1 -20c13 -268 162 -352 348 -352c76 0 228 29 284 62l42 -126c-75 -61 -248 -102 -385 -102c-324 0 -505 218 -505 588zM317 668h503c10 163 -26 332 -226 332
c-137 0 -251 -86 -277 -332zM596 1294c-81 37 -318 253 -384 354l157 135c95 -123 226 -271 338 -399z" />
    <glyph glyph-name="edieresis" unicode="&#xeb;" horiz-adv-x="1123" 
d="M815 1363c-72 0 -131 50 -131 130c0 83 78 149 155 149c90 0 130 -58 130 -130c0 -88 -74 -149 -154 -149zM357 1363c-72 0 -131 50 -131 130c0 83 79 149 155 149c91 0 130 -58 130 -130c0 -88 -74 -149 -154 -149zM97 572c0 332 175 578 509 584
c227 4 411 -145 420 -430c0 -86 0 -153 -11 -204h-703c0 -7 1 -13 1 -20c13 -268 162 -352 348 -352c76 0 228 29 284 62l42 -126c-75 -61 -248 -102 -385 -102c-324 0 -505 218 -505 588zM317 668h503c10 163 -26 332 -226 332c-137 0 -251 -86 -277 -332z" />
    <glyph glyph-name="ecircumflex" unicode="&#xea;" horiz-adv-x="1123" 
d="M349 1293l-126 56l276 333h198l268 -332l-135 -56l-232 222zM97 572c0 332 175 578 509 584c227 4 411 -145 420 -430c0 -86 0 -153 -11 -204h-703c0 -7 1 -13 1 -20c13 -268 162 -352 348 -352c76 0 228 29 284 62l42 -126c-75 -61 -248 -102 -385 -102
c-324 0 -505 218 -505 588zM317 668h503c10 163 -26 332 -226 332c-137 0 -251 -86 -277 -332z" />
    <glyph glyph-name="iacute" unicode="&#xed;" horiz-adv-x="606" 
d="M284 1294l-111 90c114 125 240 261 338 399l156 -135c-49 -83 -310 -326 -383 -354zM193 0v1138h220v-1138h-220z" />
    <glyph glyph-name="igrave" unicode="&#xec;" horiz-adv-x="606" 
d="M193 0v1138h220v-1138h-220zM302 1294c-81 37 -318 253 -384 354l157 135c95 -123 226 -271 338 -399z" />
    <glyph glyph-name="idieresis" unicode="&#xef;" horiz-adv-x="606" 
d="M509 1363c-72 0 -131 50 -131 130c0 83 78 149 155 149c90 0 130 -58 130 -130c0 -88 -74 -149 -154 -149zM75 1363c-72 0 -131 50 -131 130c0 83 79 149 155 149c91 0 130 -58 130 -130c0 -88 -74 -149 -154 -149zM193 0v1138h220v-1138h-220z" />
    <glyph glyph-name="icircumflex" unicode="&#xee;" horiz-adv-x="606" 
d="M55 1293l-126 56l276 333h198l268 -332l-135 -56l-232 222zM193 0v1138h220v-1138h-220z" />
    <glyph glyph-name="ntilde" unicode="&#xf1;" horiz-adv-x="1279" 
d="M176 0v1138h196l1 -120c85 58 248 135 397 139c246 6 339 -113 339 -447v-710h-220v711c0 190 -35 274 -213 264c-75 -3 -189 -40 -280 -106v-869h-220zM376 1385l-85 68c45 100 149 195 270 195c161 0 192 -137 295 -137c90 0 142 53 183 98l86 -72
c-51 -107 -148 -193 -270 -193c-171 0 -192 138 -296 138c-80 0 -142 -54 -183 -97z" />
    <glyph glyph-name="oacute" unicode="&#xf3;" horiz-adv-x="1213" 
d="M597 1294l-111 90c114 125 240 261 338 399l156 -135c-49 -83 -310 -326 -383 -354zM596 -16c-365 0 -504 285 -500 610c5 366 227 562 520 562c366 0 505 -285 501 -610c-6 -366 -227 -562 -521 -562zM602 140c193 -4 292 152 292 416c0 244 -87 439 -283 442
c-192 4 -292 -144 -292 -407c0 -244 89 -447 283 -451z" />
    <glyph glyph-name="ograve" unicode="&#xf2;" horiz-adv-x="1213" 
d="M596 -16c-365 0 -504 285 -500 610c5 366 227 562 520 562c366 0 505 -285 501 -610c-6 -366 -227 -562 -521 -562zM602 140c193 -4 292 152 292 416c0 244 -87 439 -283 442c-192 4 -292 -144 -292 -407c0 -244 89 -447 283 -451zM615 1294c-81 37 -318 253 -384 354
l157 135c95 -123 226 -271 338 -399z" />
    <glyph glyph-name="odieresis" unicode="&#xf6;" horiz-adv-x="1213" 
d="M834 1363c-72 0 -131 50 -131 130c0 83 78 149 155 149c90 0 130 -58 130 -130c0 -88 -74 -149 -154 -149zM376 1363c-72 0 -131 50 -131 130c0 83 79 149 155 149c91 0 130 -58 130 -130c0 -88 -74 -149 -154 -149zM596 -16c-365 0 -504 285 -500 610
c5 366 227 562 520 562c366 0 505 -285 501 -610c-6 -366 -227 -562 -521 -562zM602 140c193 -4 292 152 292 416c0 244 -87 439 -283 442c-192 4 -292 -144 -292 -407c0 -244 89 -447 283 -451z" />
    <glyph glyph-name="otilde" unicode="&#xf5;" horiz-adv-x="1213" 
d="M596 -16c-365 0 -504 285 -500 610c5 366 227 562 520 562c366 0 505 -285 501 -610c-6 -366 -227 -562 -521 -562zM602 140c193 -4 292 152 292 416c0 244 -87 439 -283 442c-192 4 -292 -144 -292 -407c0 -244 89 -447 283 -451zM282 1385l-85 68
c45 100 149 195 270 195c161 0 192 -137 295 -137c90 0 142 53 183 98l86 -72c-51 -107 -148 -193 -270 -193c-171 0 -192 138 -296 138c-80 0 -142 -54 -183 -97z" />
    <glyph glyph-name="ocircumflex" unicode="&#xf4;" horiz-adv-x="1213" 
d="M368 1293l-126 56l276 333h198l268 -332l-135 -56l-232 222zM596 -16c-365 0 -504 285 -500 610c5 366 227 562 520 562c366 0 505 -285 501 -610c-6 -366 -227 -562 -521 -562zM602 140c193 -4 292 152 292 416c0 244 -87 439 -283 442c-192 4 -292 -144 -292 -407
c0 -244 89 -447 283 -451z" />
    <glyph glyph-name="scaron" unicode="&#x161;" horiz-adv-x="977" 
d="M414 1321l-276 333l126 56l249 -223l232 222l135 -56l-268 -332h-198zM112 65l33 164c31 -22 175 -80 320 -82c134 -1 207 51 207 140c0 93 -105 147 -235 202c-182 77 -320 180 -318 371c3 198 186 296 412 296c138 0 255 -40 289 -59l-36 -166c-35 30 -140 63 -246 63
c-140 0 -214 -48 -216 -122c-3 -106 82 -156 221 -212c153 -62 334 -162 334 -357c0 -207 -155 -319 -402 -319c-156 0 -309 42 -363 81z" />
    <glyph glyph-name="uacute" unicode="&#xfa;" horiz-adv-x="1249" 
d="M615 1294l-111 90c114 125 240 261 338 399l156 -135c-49 -83 -310 -326 -383 -354zM170 474v666h220v-665c0 -282 59 -310 209 -310c86 0 204 47 254 80v895h220v-1156h-85c-69 0 -110 8 -110 88v28c-94 -58 -245 -116 -369 -116c-290 0 -339 197 -339 490z" />
    <glyph glyph-name="ugrave" unicode="&#xf9;" horiz-adv-x="1249" 
d="M170 474v666h220v-665c0 -282 59 -310 209 -310c86 0 204 47 254 80v895h220v-1156h-85c-69 0 -110 8 -110 88v28c-94 -58 -245 -116 -369 -116c-290 0 -339 197 -339 490zM633 1294c-81 37 -318 253 -384 354l157 135c95 -123 226 -271 338 -399z" />
    <glyph glyph-name="udieresis" unicode="&#xfc;" horiz-adv-x="1249" 
d="M852 1363c-72 0 -131 50 -131 130c0 83 78 149 155 149c90 0 130 -58 130 -130c0 -88 -74 -149 -154 -149zM394 1363c-72 0 -131 50 -131 130c0 83 79 149 155 149c91 0 130 -58 130 -130c0 -88 -74 -149 -154 -149zM170 474v666h220v-665c0 -282 59 -310 209 -310
c86 0 204 47 254 80v895h220v-1156h-85c-69 0 -110 8 -110 88v28c-94 -58 -245 -116 -369 -116c-290 0 -339 197 -339 490z" />
    <glyph glyph-name="ucircumflex" unicode="&#xfb;" horiz-adv-x="1249" 
d="M386 1293l-126 56l276 333h198l268 -332l-135 -56l-232 222zM170 474v666h220v-665c0 -282 59 -310 209 -310c86 0 204 47 254 80v895h220v-1156h-85c-69 0 -110 8 -110 88v28c-94 -58 -245 -116 -369 -116c-290 0 -339 197 -339 490z" />
    <glyph glyph-name="yacute" unicode="&#xfd;" horiz-adv-x="1116" 
d="M131 -314c22 -7 73 -11 96 -11c82 0 231 53 295 325h-65l-413 1140h235l252 -768l58 -186l51 186l216 768h237l-384 -1176c-90 -275 -213 -415 -358 -456c-30 -8 -77 -15 -108 -15c-30 0 -100 6 -112 14v179zM571 1294l-111 90c114 125 240 261 338 399l156 -135
c-49 -83 -310 -326 -383 -354z" />
    <glyph glyph-name="ydieresis" unicode="&#xff;" horiz-adv-x="1116" 
d="M131 -314c22 -7 73 -11 96 -11c82 0 231 53 295 325h-65l-413 1140h235l252 -768l58 -186l51 186l216 768h237l-384 -1176c-90 -275 -213 -415 -358 -456c-30 -8 -77 -15 -108 -15c-30 0 -100 6 -112 14v179zM808 1363c-72 0 -131 50 -131 130c0 83 78 149 155 149
c90 0 130 -58 130 -130c0 -88 -74 -149 -154 -149zM350 1363c-72 0 -131 50 -131 130c0 83 79 149 155 149c91 0 130 -58 130 -130c0 -88 -74 -149 -154 -149z" />
    <glyph glyph-name="zcaron" unicode="&#x17e;" horiz-adv-x="1061" 
d="M439 1321l-276 333l126 56l249 -223l232 222l135 -56l-268 -332h-198zM82 82l553 807l57 83h-550v168h812l35 -95l-550 -801l-59 -84h589v-160h-845z" />
  </font>
</defs>
</svg>
